<svg id="Layer_1" data-name="Layer 1" xmlns="http://www.w3.org/2000/svg" viewBox="0 0 652 459"><defs><style>.cls-1{fill:#009638;}.cls-2{fill:#ff0;}.cls-3{fill:blue;}.cls-4{fill:#fff;}</style></defs><title>brazil-flag</title><rect class="cls-1" width="652" height="459"/><path class="cls-2" d="M647.5,299,360.87,511.13,647.5,723.24,934.13,511.13Zm-1,325A112.54,112.54,0,0,1,534.81,498q.44-3.66,1.11-7.24c-8.18.77-13.59,2.52-15.21,5.47,1.34-8.18,5.12-31.8,5.12-31.8q9.84-1.53,19.69-2.55A112.52,112.52,0,0,1,758,496.48q9.76,4.11,19.56,8.67l-4.76,29.41c-2.85-1.88-8-4.08-15-6.47A112.52,112.52,0,0,1,646.5,624Z" transform="translate(-321 -282)"/><path class="cls-2" d="M759,511.5a112.42,112.42,0,1,1-.55-11.19C758.81,504,759,507.72,759,511.5Z" transform="translate(-321 -282)"/><path class="cls-3" d="M759,511.5A112.5,112.5,0,1,1,534.81,498q.44-3.66,1.11-7.24a111.22,111.22,0,0,1,9.6-28.88A112.52,112.52,0,0,1,758,496.48c.18,1.27.32,2.55.45,3.83C758.81,504,759,507.72,759,511.5Z" transform="translate(-321 -282)"/><path class="cls-2" d="M777.56,505.15l-4.76,29.41c-2.85-1.88-8-4.08-15-6.47A112,112,0,0,0,759,511.5c0-3.78-.19-7.51-.55-11.19-.13-1.28-.27-2.56-.45-3.83Q767.77,500.59,777.56,505.15Z" transform="translate(-321 -282)"/><path class="cls-4" d="M520.71,496.21c-.29,1.71-.46,2.75-.47,2.75A4.21,4.21,0,0,1,520.71,496.21Z" transform="translate(-321 -282)"/><path class="cls-2" d="M545.52,461.86a111.22,111.22,0,0,0-9.6,28.88c-8.18.77-13.59,2.52-15.21,5.47,1.34-8.18,5.12-31.8,5.12-31.8Q535.67,462.88,545.52,461.86Z" transform="translate(-321 -282)"/><path class="cls-4" d="M759,511.5a112,112,0,0,1-1.22,16.59C710.54,511.86,581,486.5,535.92,490.74a111.22,111.22,0,0,1,9.6-28.88c70.14-7.29,140.87,4.5,212.48,34.62.18,1.27.32,2.55.45,3.83C758.81,504,759,507.72,759,511.5Z" transform="translate(-321 -282)"/><path class="cls-4" d="M772,539.7l.83-5.14C776.25,536.82,776.28,538.6,772,539.7Z" transform="translate(-321 -282)"/></svg>