<svg id="Layer_1" data-name="Layer 1" xmlns="http://www.w3.org/2000/svg" viewBox="0 0 652 459"><defs><style>.cls-1{fill:red;}.cls-2{fill:#e6e6e6;}.cls-3{fill:#3f51b5;}.cls-4{fill:#fff;}</style></defs><title>usa-flag</title><rect class="cls-1" width="652" height="51"/><rect class="cls-2" y="51" width="652" height="51"/><rect class="cls-1" y="102" width="652" height="51"/><rect class="cls-2" y="153" width="652" height="51"/><rect class="cls-1" y="204" width="652" height="51"/><rect class="cls-2" y="255" width="652" height="51"/><rect class="cls-1" y="306" width="652" height="51"/><rect class="cls-2" y="357" width="652" height="51"/><rect class="cls-1" y="408" width="652" height="51"/><rect class="cls-3" width="292" height="255"/><polygon class="cls-4" points="35.09 8.52 42.56 23.66 59.27 26.08 47.18 37.87 50.03 54.51 35.09 46.65 20.15 54.51 23 37.87 10.91 26.08 27.62 23.66 35.09 8.52"/><polygon class="cls-4" points="91.39 8.52 98.86 23.66 115.56 26.08 103.47 37.87 106.33 54.51 91.39 46.65 76.44 54.51 79.3 37.87 67.21 26.08 83.91 23.66 91.39 8.52"/><polygon class="cls-4" points="145.38 8.52 152.85 23.66 169.56 26.08 157.47 37.87 160.32 54.51 145.38 46.65 130.44 54.51 133.29 37.87 121.21 26.08 137.91 23.66 145.38 8.52"/><polygon class="cls-4" points="201.68 8.52 209.15 23.66 225.85 26.08 213.76 37.87 216.62 54.51 201.68 46.65 186.74 54.51 189.59 37.87 177.5 26.08 194.21 23.66 201.68 8.52"/><polygon class="cls-4" points="256.82 8.52 264.29 23.66 281 26.08 268.91 37.87 271.76 54.51 256.82 46.65 241.88 54.51 244.74 37.87 232.65 26.08 249.35 23.66 256.82 8.52"/><polygon class="cls-4" points="35.09 68.52 42.56 83.66 59.27 86.08 47.18 97.87 50.03 114.5 35.09 106.65 20.15 114.5 23 97.87 10.91 86.08 27.62 83.66 35.09 68.52"/><polygon class="cls-4" points="91.39 68.52 98.86 83.66 115.56 86.08 103.47 97.87 106.33 114.5 91.39 106.65 76.44 114.5 79.3 97.87 67.21 86.08 83.91 83.66 91.39 68.52"/><polygon class="cls-4" points="145.38 68.52 152.85 83.66 169.56 86.08 157.47 97.87 160.32 114.5 145.38 106.65 130.44 114.5 133.29 97.87 121.21 86.08 137.91 83.66 145.38 68.52"/><polygon class="cls-4" points="201.68 68.52 209.15 83.66 225.85 86.08 213.76 97.87 216.62 114.5 201.68 106.65 186.74 114.5 189.59 97.87 177.5 86.08 194.21 83.66 201.68 68.52"/><polygon class="cls-4" points="256.82 68.52 264.29 83.66 281 86.08 268.91 97.87 271.76 114.5 256.82 106.65 241.88 114.5 244.74 97.87 232.65 86.08 249.35 83.66 256.82 68.52"/><polygon class="cls-4" points="35.09 125.52 42.56 140.66 59.27 143.08 47.18 154.87 50.03 171.5 35.09 163.65 20.15 171.5 23 154.87 10.91 143.08 27.62 140.66 35.09 125.52"/><polygon class="cls-4" points="91.39 125.52 98.86 140.66 115.56 143.08 103.47 154.87 106.33 171.5 91.39 163.65 76.44 171.5 79.3 154.87 67.21 143.08 83.91 140.66 91.39 125.52"/><polygon class="cls-4" points="145.38 125.52 152.85 140.66 169.56 143.08 157.47 154.87 160.32 171.5 145.38 163.65 130.44 171.5 133.29 154.87 121.21 143.08 137.91 140.66 145.38 125.52"/><polygon class="cls-4" points="201.68 125.52 209.15 140.66 225.85 143.08 213.76 154.87 216.62 171.5 201.68 163.65 186.74 171.5 189.59 154.87 177.5 143.08 194.21 140.66 201.68 125.52"/><polygon class="cls-4" points="256.82 125.52 264.29 140.66 281 143.08 268.91 154.87 271.76 171.5 256.82 163.65 241.88 171.5 244.74 154.87 232.65 143.08 249.35 140.66 256.82 125.52"/><polygon class="cls-4" points="35.09 183.52 42.56 198.66 59.27 201.08 47.18 212.87 50.03 229.5 35.09 221.65 20.15 229.5 23 212.87 10.91 201.08 27.62 198.66 35.09 183.52"/><polygon class="cls-4" points="91.39 183.52 98.86 198.66 115.56 201.08 103.47 212.87 106.33 229.5 91.39 221.65 76.44 229.5 79.3 212.87 67.21 201.08 83.91 198.66 91.39 183.52"/><polygon class="cls-4" points="145.38 183.52 152.85 198.66 169.56 201.08 157.47 212.87 160.32 229.5 145.38 221.65 130.44 229.5 133.29 212.87 121.21 201.08 137.91 198.66 145.38 183.52"/><polygon class="cls-4" points="201.68 183.52 209.15 198.66 225.85 201.08 213.76 212.87 216.62 229.5 201.68 221.65 186.74 229.5 189.59 212.87 177.5 201.08 194.21 198.66 201.68 183.52"/><polygon class="cls-4" points="256.82 183.52 264.29 198.66 281 201.08 268.91 212.87 271.76 229.5 256.82 221.65 241.88 229.5 244.74 212.87 232.65 201.08 249.35 198.66 256.82 183.52"/></svg>